<?xml version="1.0" encoding="UTF-8" standalone="no"?>
<svg
   xmlns:dc="http://purl.org/dc/elements/1.1/"
   xmlns:cc="http://creativecommons.org/ns#"
   xmlns:rdf="http://www.w3.org/1999/02/22-rdf-syntax-ns#"
   xmlns:svg="http://www.w3.org/2000/svg"
   xmlns="http://www.w3.org/2000/svg"
   xmlns:sodipodi="http://sodipodi.sourceforge.net/DTD/sodipodi-0.dtd"
   xmlns:inkscape="http://www.inkscape.org/namespaces/inkscape"
   inkscape:version="1.0 (4035a4fb49, 2020-05-01)"
   sodipodi:docname="menu.svg"
   viewBox="0 0 512 512"
   height="512"
   width="512"
   id="svg2"
   version="1.1">
  <metadata
     id="metadata8">
    <rdf:RDF>
      <cc:Work
         rdf:about="">
        <dc:format>image/svg+xml</dc:format>
        <dc:type
           rdf:resource="http://purl.org/dc/dcmitype/StillImage" />
      </cc:Work>
    </rdf:RDF>
  </metadata>
  <defs
     id="defs6" />
  <sodipodi:namedview
     inkscape:current-layer="g10"
     inkscape:window-maximized="1"
     inkscape:window-y="-8"
     inkscape:window-x="-8"
     inkscape:cy="256"
     inkscape:cx="255.07581"
     inkscape:zoom="1.0820312"
     showgrid="false"
     id="namedview4"
     inkscape:window-height="705"
     inkscape:window-width="1366"
     inkscape:pageshadow="2"
     inkscape:pageopacity="0"
     guidetolerance="10"
     gridtolerance="10"
     objecttolerance="10"
     borderopacity="1"
     bordercolor="#666666"
     pagecolor="#ffffff" />
  <g
     id="g10"
     inkscape:label="Image"
     inkscape:groupmode="layer">
    <g
       style="fill:#fe8b04;fill-opacity:1"
       transform="translate(0.05669653,0.22532746)"
       id="g839">
      <path
         id="path847"
         d="M 73,415.04732 54.5,414.5 47.821461,410.74102 C 42.4904,407.74046 40.430034,405.84234 37.609618,401.33331 26.615431,383.75678 32.87631,364.18736 52.710162,354.13403 L 56.920324,352 H 256 455.07968 l 4.1878,2.13646 c 7.77697,3.96751 11.43163,6.919 14.57591,11.77145 3.99118,6.15944 6.53529,15.83025 5.6331,21.41284 -1.20832,7.47682 -7.26699,18.70913 -11.37932,21.09636 -1.02598,0.59559 -4.05506,2.43289 -6.73129,4.08289 l -4.86588,3 -182.5,0.0473 c -100.375,0.026 -190.825,-0.19898 -201,-0.5 z m 0,-128 L 54.5,286.5 47.821461,282.74102 C 42.4904,279.74046 40.430034,277.84234 37.609618,273.33331 26.615431,255.75678 32.87631,236.18736 52.710162,226.13403 L 56.920324,224 H 256 455.07968 l 4.1878,2.13646 c 7.77697,3.96751 11.43163,6.919 14.57591,11.77145 3.99118,6.15944 6.53529,15.83025 5.6331,21.41284 -1.20832,7.47682 -7.26699,18.70913 -11.37932,21.09636 -1.02598,0.59559 -4.05506,2.43289 -6.73129,4.08289 l -4.86588,3 -182.5,0.0473 c -100.375,0.026 -190.825,-0.19898 -201,-0.5 z M 85.5,159.03399 c -17.05,-0.29881 -31.9,-0.96383 -33,-1.47784 -6.719396,-3.13981 -12.260293,-7.76692 -15.239602,-12.72634 -10.521195,-17.51377 -4.15363,-36.75927 15.449764,-46.695776 L 56.920324,96 H 256 455.07968 l 4.1878,2.136459 c 7.77697,3.967511 11.43163,6.919001 14.57591,11.771451 3.99118,6.15944 6.53529,15.83025 5.6331,21.41284 -1.20832,7.47682 -7.26699,18.70913 -11.37932,21.09636 -1.02598,0.59559 -4.05506,2.43289 -6.73129,4.08289 l -4.86588,3 -170,0.0386 c -93.5,0.0213 -183.95,-0.20584 -201,-0.50465 z"
         style="fill:#fe8b04;fill-opacity:1" />
      <path
         id="path845"
         d="M 100,415.04906 54.5,414.5 48.207196,411 c -5.044703,-2.80582 -7.111391,-4.75562 -10.420045,-9.83071 -3.754211,-5.75853 -4.168309,-7.04015 -4.581627,-14.17996 -0.590809,-10.20587 0.09817,-13.47599 4.171185,-19.79796 3.449942,-5.35486 8.264928,-9.43741 15.459307,-13.10771 L 56.920324,352 H 255.49228 c 168.54575,0 199.08187,0.21305 201.94415,1.40899 5.20358,2.1742 13.64757,8.17006 15.15481,10.76105 5.36723,9.22644 6.38922,12.39836 6.38922,19.82996 0,5.80727 -0.53884,8.65725 -2.38745,12.62746 -1.3131,2.82011 -2.91146,5.45132 -3.55192,5.84714 -0.64045,0.39582 -1.58586,1.82804 -2.1009,3.18271 -0.51504,1.35467 -1.3363,2.21591 -1.82501,1.91387 -0.48871,-0.30204 -1.47379,0.15599 -2.18906,1.01784 -0.71527,0.86185 -3.35376,2.5944 -5.86331,3.85012 L 456.5,414.72225 301,415.16018 c -85.525,0.24086 -175.975,0.19086 -201,-0.11112 z m 0,-128 L 54.5,286.5 48.207196,283 c -5.044703,-2.80582 -7.111391,-4.75562 -10.420045,-9.83071 -3.754211,-5.75853 -4.168309,-7.04015 -4.581627,-14.17996 -0.590809,-10.20587 0.09817,-13.47599 4.171185,-19.79796 3.449942,-5.35486 8.264928,-9.43741 15.459307,-13.10771 L 56.920324,224 H 255.49228 c 168.54575,0 199.08187,0.21305 201.94415,1.40899 5.20358,2.1742 13.64757,8.17006 15.15481,10.76105 5.36723,9.22644 6.38922,12.39836 6.38922,19.82996 0,5.80727 -0.53884,8.65725 -2.38745,12.62746 -1.3131,2.82011 -2.91146,5.45132 -3.55192,5.84714 -0.64045,0.39582 -1.58586,1.82804 -2.1009,3.18271 -0.51504,1.35467 -1.3363,2.21591 -1.82501,1.91387 -0.48871,-0.30204 -1.47379,0.15599 -2.18906,1.01784 -0.71527,0.86185 -3.35376,2.5944 -5.86331,3.85012 L 456.5,286.72225 301,287.16018 c -85.525,0.24086 -175.975,0.19086 -201,-0.11112 z M 51.04843,156.24023 C 48.050067,154.7331 44.7684,153.05 43.755837,152.5 c -1.012563,-0.55 -3.698377,-3.84882 -5.968476,-7.33071 -3.75448,-5.75865 -4.168511,-7.04 -4.581837,-14.17996 -0.590809,-10.20587 0.09817,-13.47599 4.171185,-19.79796 3.449942,-5.35486 8.264928,-9.43741 15.459307,-13.107712 L 56.920324,96 H 255.49228 c 168.54575,0 199.08187,0.213055 201.94415,1.408992 5.20358,2.174194 13.64757,8.170058 15.15481,10.761048 5.36723,9.22644 6.38922,12.39836 6.38922,19.82996 0,5.80727 -0.53884,8.65725 -2.38745,12.62746 -1.3131,2.82011 -2.91146,5.45132 -3.55192,5.84714 -0.64045,0.39582 -1.58586,1.82804 -2.1009,3.18271 -0.51504,1.35467 -1.3363,2.21591 -1.82501,1.91387 -0.48871,-0.30204 -1.47379,0.15599 -2.18906,1.01784 -0.71527,0.86185 -3.4513,2.65689 -6.08006,3.98899 L 456.06649,159 256.28324,158.99 56.5,158.98 51.04843,156.23977 Z"
         style="fill:#fe8b04;fill-opacity:1" />
      <path
         id="path843"
         d="m 54.396301,413.5818 c -9.119274,-2.85421 -17.825781,-11.60783 -20.533162,-20.64426 -1.546393,-5.1614 -0.667612,-17.63886 1.566162,-22.23729 2.6119,-5.37684 9.486912,-12.11736 15.43169,-15.12981 L 55.933513,353 H 256 456.06649 l 4.71675,2.39645 c 5.8478,2.97111 11.31892,8.21537 14.84137,14.22596 3.5518,6.0607 4.40398,16.7647 1.92813,24.21879 -2.09394,6.30429 -9.06712,14.2655 -15.95584,18.21662 l -5.0969,2.92341 -199,-0.0575 C 98.38159,414.87773 57.677578,414.6088 54.396301,413.5818 Z m 0,-128 c -9.119274,-2.85421 -17.825781,-11.60783 -20.533162,-20.64426 -1.546393,-5.1614 -0.667612,-17.63886 1.566162,-22.23729 2.6119,-5.37684 9.486912,-12.11736 15.43169,-15.12981 L 55.933513,225 H 256 456.06649 l 4.71675,2.39645 c 5.8478,2.97111 11.31892,8.21537 14.84137,14.22596 3.5518,6.0607 4.40398,16.7647 1.92813,24.21879 -2.09394,6.30429 -9.06712,14.2655 -15.95584,18.21662 l -5.0969,2.92341 -199,-0.0575 C 98.38159,286.87773 57.677578,286.6088 54.396301,285.5818 Z M 53.829994,157.60145 c -8.053517,-2.87637 -16.283543,-10.98526 -19.380935,-19.09567 -2.178078,-5.70321 -1.65828,-18.40341 0.97432,-23.80553 2.622901,-5.38222 9.49745,-12.1197 15.437612,-15.129809 L 55.933513,97 H 256 456.06649 l 4.71675,2.396454 c 5.8478,2.971106 11.31892,8.215366 14.84137,14.225956 3.5518,6.0607 4.40398,16.7647 1.92813,24.21879 -2.09394,6.30429 -9.06712,14.2655 -15.95584,18.21662 L 456.5,158.98123 257,158.94672 C 95.068404,158.91871 56.808891,158.66538 53.829994,157.60145 Z"
         style="fill:#fe8b04;fill-opacity:1" />
      <path
         sodipodi:nodetypes="sssscccssssscssssssccsssssscsssssscccssssscss"
         id="path841"
         d="m 57.5,414.06039 c -9.547066,-1.64515 -19.899239,-10.72487 -23.052744,-20.21919 -2.441259,-7.34994 -1.620376,-18.16371 1.825127,-24.04301 3.138768,-5.35591 10.087684,-11.92091 15.588366,-14.72715 L 55.920324,353 H 256 456.07968 l 4.05957,2.07104 c 5.93282,3.0267 12.66094,9.62726 15.68622,15.38881 2.25398,4.29267 2.64855,6.30075 2.6605,13.54015 0.0125,7.56708 -0.31154,9.08778 -2.95227,13.85541 -3.43075,6.19393 -9.68303,12.05442 -16.05645,15.05028 L 455.0218,415 258.2609,414.87483 C 150.0424,414.80599 59.7,414.43949 57.5,414.06039 Z m 0,-128 c -9.547066,-1.64515 -19.899239,-10.72487 -23.052744,-20.21919 -2.441259,-7.34994 -1.620376,-18.16371 1.825127,-24.04301 3.138768,-5.35591 10.087684,-11.92091 15.588366,-14.72715 L 55.920324,225 H 256 c 0,0 0,0 200.07968,0 1.51911,0 2.70638,1.38069 4.05957,2.07104 5.93282,3.0267 12.66094,9.62726 15.68622,15.38881 2.25398,4.29267 2.64855,6.30075 2.6605,13.54015 0.0125,7.56708 -0.31154,9.08778 -2.95227,13.85541 -3.43075,6.19393 -9.68303,12.05442 -16.05645,15.05028 L 455.0218,287 258.2609,286.87483 C 150.0424,286.80599 59.7,286.43949 57.5,286.06039 Z M 57,158.06053 C 47.680582,156.17141 37.505681,147.04926 34.447256,137.8412 32.005997,130.49126 32.82688,119.67749 36.272383,113.79819 39.411151,108.44228 46.360067,101.87728 51.860749,99.071041 L 55.920324,97 H 256 456.07968 l 4.05957,2.071041 c 5.93282,3.026699 12.66094,9.627259 15.68622,15.388809 2.25398,4.29267 2.64855,6.30075 2.6605,13.54015 0.0125,7.56708 -0.31154,9.08778 -2.95227,13.85541 -3.43075,6.19393 -9.68303,12.05442 -16.05645,15.05028 L 455.0218,159 257.7609,158.885 C 149.2674,158.82175 58.925,158.45074 57,158.06053 Z"
         style="fill:#fe8b04;fill-opacity:1" />
    </g>
    <path
       d=""
       id="path837"
       style="fill:#000000" />
  </g>
</svg>
