<?xml version="1.0" encoding="UTF-8" standalone="no"?>
<svg
   xmlns:dc="http://purl.org/dc/elements/1.1/"
   xmlns:cc="http://creativecommons.org/ns#"
   xmlns:rdf="http://www.w3.org/1999/02/22-rdf-syntax-ns#"
   xmlns:svg="http://www.w3.org/2000/svg"
   xmlns="http://www.w3.org/2000/svg"
   xmlns:sodipodi="http://sodipodi.sourceforge.net/DTD/sodipodi-0.dtd"
   xmlns:inkscape="http://www.inkscape.org/namespaces/inkscape"
   inkscape:version="1.0 (4035a4fb49, 2020-05-01)"
   sodipodi:docname="twitter.svg"
   viewBox="0 0 25 25"
   height="25"
   width="25"
   id="svg2"
   version="1.1">
  <metadata
     id="metadata8">
    <rdf:RDF>
      <cc:Work
         rdf:about="">
        <dc:format>image/svg+xml</dc:format>
        <dc:type
           rdf:resource="http://purl.org/dc/dcmitype/StillImage" />
        <dc:title></dc:title>
      </cc:Work>
    </rdf:RDF>
  </metadata>
  <defs
     id="defs6" />
  <sodipodi:namedview
     showguides="false"
     inkscape:current-layer="g10"
     inkscape:window-maximized="1"
     inkscape:window-y="-8"
     inkscape:window-x="-8"
     inkscape:cy="12.5"
     inkscape:cx="12.5"
     inkscape:zoom="21.15516"
     showgrid="false"
     id="namedview4"
     inkscape:window-height="705"
     inkscape:window-width="1366"
     inkscape:pageshadow="2"
     inkscape:pageopacity="0"
     guidetolerance="10"
     gridtolerance="10"
     objecttolerance="10"
     borderopacity="1"
     bordercolor="#666666"
     pagecolor="#ffffff" />
  <g
     id="g10"
     inkscape:label="Image"
     inkscape:groupmode="layer">
    <path
       sodipodi:nodetypes="sssssssssssssssssscsssssss"
       id="path14"
       d="M 2.9195466,21.922554 C 0.16388554,20.936411 -0.24475995,20.260114 1.8987826,20.233212 3.5451085,20.212562 6.44171,19.250374 6.6384813,18.658805 6.7054573,18.457472 6.2103805,18.093909 5.5383225,17.850891 3.6397971,17.164377 1.9944893,14.641237 3.4453479,14.641237 c 0.3619757,0 0.1638342,-0.327413 -0.5737234,-0.948027 -1.0441617,-0.878605 -2.08336378,-2.694554 -2.08336378,-3.640568 0,-0.2405898 0.35310668,-0.3353338 0.87672488,-0.2352408 1.0712083,0.2047748 1.0749642,0.154137 0.087675,-1.1824223 C 1.1561487,7.8274482 0.96808036,7.1061773 0.98194974,5.6791899 0.9920484,4.6410116 1.1040791,3.6878083 1.2309297,3.5609601 1.357778,3.4341125 2.23251,3.975795 3.1747709,4.7647033 5.1282671,6.4002638 7.7588031,7.7927331 9.5555196,8.1423414 10.2306,8.273698 11.059106,8.4589306 11.396645,8.5539667 c 0.507339,0.1428504 0.613936,-0.059228 0.615019,-1.1659235 0.0037,-3.8764562 4.606017,-6.3487266 7.959831,-4.2759489 1.139586,0.704301 1.280803,0.7154243 2.583901,0.2035544 1.591983,-0.6253487 1.803928,-0.2312923 0.589377,1.0958091 l -0.789052,0.862172 1.148306,-0.2188102 c 1.013739,-0.1931623 1.110014,-0.1472504 0.821537,0.3917731 -0.179723,0.3358157 -0.650065,0.9031558 -1.045202,1.260747 -0.431764,0.3907391 -0.805673,1.298743 -0.937069,2.2755671 -0.595488,4.4270092 -3.093841,8.9976802 -6.024192,11.0210952 -2.645787,1.826917 -4.641259,2.47733 -7.9909955,2.604631 -2.6102074,0.0992 -3.5458588,-0.01948 -5.4085589,-0.686079 z"
       style="fill:#000000;stroke-width:0.35069" />
  </g>
</svg>
