<svg width="100%" height="100%" viewBox="0 0 2084 2084" xmlns="http://www.w3.org/2000/svg"><path id="LOGO" d="M159.482,1738.47l760.167,-1316.92l90.866,153.026l-580.953,1007.57l1577.48,1.991l-88.956,153.993l-1758.61,0.341Zm-32.977,-60.008l-88.921,-150.035l879.618,-1528.42l762.843,1319.07l-177.583,2.086l-586.249,-1007.48l-789.708,1364.78Zm390.714,-148.459l88.214,-152.568l1169.22,-4.151l-792.053,-1373.28l176.143,0l887.025,1530.83l-1528.55,-0.827Z"/><path id="E" d="M584.529,1869.27c4.672,0 7.008,2.235 7.008,6.704l0,28.946c0,4.469 -2.336,6.704 -7.008,6.704l-133.154,-0c-7.922,-0 -14.524,0.71 -19.805,2.133c-5.079,1.22 -9.243,3.454 -12.493,6.703c-3.047,3.047 -5.18,7.313 -6.399,12.798c-1.219,5.281 -1.828,11.883 -1.828,19.805l-0,3.047l172.156,0c4.468,0 6.703,2.235 6.703,6.703l-0,24.072c-0,4.469 -2.235,6.703 -6.703,6.703l-172.156,0l-0,5.18c-0,7.922 0.609,14.626 1.828,20.111c1.219,5.281 3.352,9.547 6.399,12.797c3.25,3.047 7.414,5.281 12.493,6.703c5.281,1.22 11.883,1.829 19.805,1.829l133.154,0c4.672,0 7.008,2.235 7.008,6.704l0,28.946c0,4.469 -2.336,6.704 -7.008,6.704l-134.068,-0c-15.438,-0 -28.54,-1.423 -39.306,-4.266c-10.766,-2.844 -19.603,-7.415 -26.509,-13.712c-6.704,-6.5 -11.68,-14.828 -14.931,-24.985c-3.047,-10.36 -4.57,-22.853 -4.57,-37.478l-0,-52.409c-0,-14.625 1.523,-27.016 4.57,-37.173c3.251,-10.157 8.227,-18.384 14.931,-24.681c6.906,-6.5 15.743,-11.172 26.509,-14.016c10.766,-3.047 23.868,-4.57 39.306,-4.57l134.068,-0.002Z"/><path id="R" d="M799.224,1869.27c23.36,0 40.119,5.282 50.275,15.844c10.157,10.564 15.235,26.205 15.235,46.924l0,17.368c0,17.47 -3.554,31.283 -10.664,41.439c-7.11,10.157 -18.688,16.657 -34.736,19.501l52.104,64.597c1.015,1.015 1.32,2.538 0.914,4.57c-0.406,2.032 -2.031,3.047 -4.875,3.047l-39.307,0c-2.64,0 -4.469,-0.304 -5.484,-0.913c-1.016,-0.609 -2.032,-1.624 -3.047,-3.047l-48.143,-63.378l-98.418,0l-0,60.636c-0,4.469 -2.235,6.703 -6.704,6.703l-32.907,0c-4.672,0 -7.008,-2.234 -7.008,-6.703l-0,-197.446c-0,-6.094 3.047,-9.141 9.141,-9.141l163.624,-0.001Zm-126.146,108.778l116.7,0c10.36,0 17.673,-2.234 21.939,-6.703c4.265,-4.469 6.398,-11.274 6.398,-20.415l0,-12.798c0,-9.141 -2.133,-15.946 -6.398,-20.415c-4.266,-4.468 -11.579,-6.703 -21.939,-6.703l-112.739,0c-2.641,0 -3.961,1.218 -3.961,3.656l-0,63.378Z"/><path id="R1" d="M1074.76,1869.27c23.361,0 40.119,5.282 50.276,15.844c10.157,10.564 15.235,26.205 15.235,46.924l-0,17.368c-0,17.47 -3.555,31.283 -10.665,41.439c-7.109,10.157 -18.688,16.657 -34.735,19.501l52.103,64.597c1.016,1.015 1.321,2.538 0.914,4.57c-0.406,2.032 -2.031,3.047 -4.875,3.047l-39.306,0c-2.641,0 -4.469,-0.304 -5.485,-0.913c-1.016,-0.609 -2.031,-1.624 -3.047,-3.047l-48.142,-63.378l-98.419,0l0,60.636c0,4.469 -2.234,6.703 -6.703,6.703l-32.908,0c-4.672,0 -7.008,-2.234 -7.008,-6.703l0,-197.446c0,-6.094 3.047,-9.141 9.141,-9.141l163.624,-0.001Zm-126.146,108.778l116.701,0c10.359,0 17.672,-2.234 21.938,-6.703c4.266,-4.469 6.399,-11.274 6.399,-20.415l-0,-12.798c-0,-9.141 -2.133,-15.946 -6.399,-20.415c-4.266,-4.468 -11.579,-6.703 -21.938,-6.703l-112.739,0c-2.641,0 -3.962,1.218 -3.962,3.656l0,63.378Z"/><path id="O" d="M1349.21,1869.27c15.438,0 28.54,1.523 39.306,4.571c10.969,2.844 19.805,7.516 26.509,14.016c6.906,6.297 11.883,14.524 14.93,24.681c3.047,10.156 4.571,22.548 4.571,37.173l-0,52.409c-0,14.625 -1.524,27.118 -4.571,37.478c-3.047,10.156 -8.024,18.485 -14.93,24.985c-6.704,6.297 -15.54,10.868 -26.509,13.712c-10.766,2.844 -23.868,4.265 -39.306,4.265l-94.153,0c-15.438,0 -28.54,-1.42 -39.306,-4.265c-10.766,-2.844 -19.603,-7.415 -26.509,-13.712c-6.703,-6.5 -11.68,-14.829 -14.93,-24.985c-3.047,-10.36 -4.571,-22.853 -4.571,-37.478l0,-52.409c0,-14.625 1.524,-27.017 4.571,-37.173c3.25,-10.157 8.227,-18.384 14.93,-24.681c6.906,-6.5 15.743,-11.172 26.509,-14.016c10.766,-3.047 23.868,-4.571 39.306,-4.571l94.153,0Zm-132.85,129.498c0,7.922 0.61,14.625 1.829,20.11c1.421,5.281 3.656,9.547 6.703,12.797c3.047,3.047 7.11,5.282 12.188,6.704c5.281,1.22 11.883,1.829 19.806,1.829l90.496,-0c7.922,-0 14.422,-0.609 19.5,-1.829c5.282,-1.423 9.446,-3.657 12.493,-6.704c3.047,-3.25 5.18,-7.516 6.399,-12.797c1.422,-5.485 2.133,-12.188 2.133,-20.11l-0,-45.705c-0,-7.922 -0.711,-14.524 -2.133,-19.806c-1.219,-5.484 -3.352,-9.75 -6.399,-12.797c-3.047,-3.25 -7.211,-5.485 -12.493,-6.704c-5.078,-1.423 -11.578,-2.133 -19.5,-2.133l-90.496,0c-7.923,0 -14.525,0.71 -19.806,2.133c-5.078,1.22 -9.141,3.454 -12.188,6.704c-3.047,3.047 -5.281,7.313 -6.703,12.797c-1.219,5.282 -1.829,11.884 -1.829,19.806l0,45.705Z"/><path id="R2" d="M1644.89,1869.27c23.361,0 40.119,5.282 50.276,15.844c10.156,10.564 15.235,26.205 15.235,46.924l-0,17.368c-0,17.47 -3.555,31.283 -10.665,41.439c-7.109,10.157 -18.688,16.657 -34.736,19.501l52.104,64.597c1.016,1.015 1.321,2.538 0.914,4.57c-0.406,2.032 -2.031,3.047 -4.875,3.047l-39.306,0c-2.641,0 -4.469,-0.304 -5.485,-0.913c-1.015,-0.609 -2.031,-1.624 -3.047,-3.047l-48.143,-63.378l-98.418,0l0,60.636c0,4.469 -2.234,6.703 -6.703,6.703l-32.908,0c-4.672,0 -7.008,-2.234 -7.008,-6.703l0,-197.446c0,-6.094 3.047,-9.141 9.141,-9.141l163.624,-0.001Zm-126.146,108.778l116.701,0c10.359,0 17.672,-2.234 21.938,-6.703c4.266,-4.469 6.399,-11.274 6.399,-20.415l-0,-12.798c-0,-9.141 -2.133,-15.946 -6.399,-20.415c-4.266,-4.468 -11.579,-6.703 -21.938,-6.703l-112.74,0c-2.64,0 -3.961,1.218 -3.961,3.656l0,63.378Z"/></svg>