<?xml version="1.0" encoding="UTF-8" standalone="no"?>
<!DOCTYPE svg PUBLIC "-//W3C//DTD SVG 1.1//EN" "http://www.w3.org/Graphics/SVG/1.1/DTD/svg11.dtd">
<svg width="100%" height="100%" viewBox="0 0 2084 2084" version="1.1" xmlns="http://www.w3.org/2000/svg" xmlns:xlink="http://www.w3.org/1999/xlink" xml:space="preserve" xmlns:serif="http://www.serif.com/" style="fill-rule:evenodd;clip-rule:evenodd;stroke-linejoin:round;stroke-miterlimit:2;">
    <path id="LOGO" d="M257.33,1546.28l676.133,-1171.34l80.821,136.109l-516.73,896.186l1403.09,1.771l-79.122,136.969l-1564.2,0.304l0.005,-0.001Zm-29.331,-53.375l-79.091,-133.449l782.378,-1359.46l678.513,1173.25l-157.952,1.855l-521.44,-896.105l-702.408,1213.91l-0,-0.001Zm347.521,-132.047l78.463,-135.702l1039.96,-3.692l-704.493,-1221.47l156.671,-0l788.966,1361.6l-1359.57,-0.735l0,-0.004Z" style="fill-rule:nonzero;"/>
    <g transform="matrix(1,0,0,1,-391.576,-147.604)">
        <g transform="matrix(288,0,0,288,1128.15,1943.6)">
            <path d="M0.761,-0.7c0.015,0 0.022,0.007 0.022,0.022l0,0.095c0,0.015 -0.007,0.022 -0.022,0.022l-0.501,0c-0.019,0 -0.033,0.005 -0.041,0.015c-0.008,0.01 -0.012,0.024 -0.012,0.041l0,0.034c0,0.037 0.017,0.056 0.052,0.056l0.375,0c0.058,0 0.102,0.015 0.131,0.044c0.029,0.03 0.044,0.073 0.044,0.128l0,0.08c0,0.049 -0.014,0.088 -0.043,0.118c-0.029,0.03 -0.073,0.045 -0.134,0.045l-0.554,-0c-0.015,-0 -0.023,-0.007 -0.023,-0.022l0,-0.095c0,-0.015 0.008,-0.022 0.023,-0.022l0.525,-0c0.019,-0 0.033,-0.005 0.041,-0.015c0.008,-0.01 0.012,-0.024 0.012,-0.041l0,-0.041c0,-0.037 -0.017,-0.056 -0.052,-0.056l-0.375,0c-0.058,0 -0.102,-0.015 -0.131,-0.045c-0.029,-0.029 -0.044,-0.072 -0.044,-0.127l0,-0.073c0,-0.049 0.014,-0.088 0.043,-0.118c0.029,-0.03 0.073,-0.045 0.134,-0.045l0.53,0Z" style="fill-rule:nonzero;"/>
        </g>
        <g transform="matrix(288,0,0,288,1374.97,1943.6)">
            <path d="M0.197,-0.7c0.015,0 0.022,0.007 0.022,0.022l0,0.656c0,0.015 -0.007,0.022 -0.022,0.022l-0.108,0c-0.015,0 -0.023,-0.007 -0.023,-0.022l0,-0.656c0,-0.015 0.008,-0.022 0.023,-0.022l0.108,0Z" style="fill-rule:nonzero;"/>
        </g>
        <g transform="matrix(288,0,0,288,1457.34,1943.6)">
            <path d="M0.244,-0.7c0.016,0 0.029,0.001 0.04,0.002c0.011,0.001 0.02,0.004 0.028,0.009c0.008,0.004 0.016,0.01 0.023,0.018c0.007,0.007 0.016,0.017 0.025,0.03l0.372,0.488c0.003,0.005 0.007,0.007 0.013,0.007l0.009,0c0.005,0 0.008,-0.003 0.008,-0.01l0,-0.522c0,-0.015 0.007,-0.022 0.022,-0.022l0.105,0c0.015,0 0.022,0.007 0.022,0.022l0,0.574c0,0.041 -0.007,0.068 -0.022,0.082c-0.015,0.015 -0.037,0.022 -0.068,0.022l-0.086,-0c-0.015,-0 -0.028,-0.001 -0.038,-0.002c-0.011,-0.001 -0.02,-0.004 -0.028,-0.008c-0.008,-0.004 -0.016,-0.01 -0.023,-0.018c-0.008,-0.007 -0.017,-0.018 -0.027,-0.031l-0.373,-0.488c-0.004,-0.005 -0.008,-0.007 -0.013,-0.007l-0.009,-0c-0.005,-0 -0.008,0.003 -0.008,0.01l0,0.522c0,0.015 -0.007,0.022 -0.022,0.022l-0.105,-0c-0.015,-0 -0.023,-0.007 -0.023,-0.022l0,-0.574c0,-0.041 0.007,-0.068 0.022,-0.083c0.015,-0.014 0.037,-0.021 0.068,-0.021l0.088,0Z" style="fill-rule:nonzero;"/>
        </g>
        <g transform="matrix(288,0,0,288,487.064,2231.6)">
            <path d="M0.197,-0.7c0.015,0 0.022,0.007 0.022,0.022l0,0.656c0,0.015 -0.007,0.022 -0.022,0.022l-0.108,0c-0.015,0 -0.023,-0.007 -0.023,-0.022l0,-0.656c0,-0.015 0.008,-0.022 0.023,-0.022l0.108,0Z" style="fill-rule:nonzero;"/>
        </g>
        <g transform="matrix(288,0,0,288,569.432,2231.6)">
            <path d="M0.244,-0.7c0.016,0 0.029,0.001 0.04,0.002c0.011,0.001 0.02,0.004 0.028,0.009c0.008,0.004 0.016,0.01 0.023,0.018c0.007,0.007 0.016,0.017 0.025,0.03l0.372,0.488c0.003,0.005 0.007,0.007 0.013,0.007l0.009,0c0.005,0 0.008,-0.003 0.008,-0.01l0,-0.522c0,-0.015 0.007,-0.022 0.022,-0.022l0.105,0c0.015,0 0.022,0.007 0.022,0.022l0,0.574c0,0.041 -0.007,0.068 -0.022,0.082c-0.015,0.015 -0.037,0.022 -0.068,0.022l-0.086,-0c-0.015,-0 -0.028,-0.001 -0.038,-0.002c-0.011,-0.001 -0.02,-0.004 -0.028,-0.008c-0.008,-0.004 -0.016,-0.01 -0.023,-0.018c-0.008,-0.007 -0.017,-0.018 -0.027,-0.031l-0.373,-0.488c-0.004,-0.005 -0.008,-0.007 -0.013,-0.007l-0.009,-0c-0.005,-0 -0.008,0.003 -0.008,0.01l0,0.522c0,0.015 -0.007,0.022 -0.022,0.022l-0.105,-0c-0.015,-0 -0.023,-0.007 -0.023,-0.022l0,-0.574c0,-0.041 0.007,-0.068 0.022,-0.083c0.015,-0.014 0.037,-0.021 0.068,-0.021l0.088,0Z" style="fill-rule:nonzero;"/>
        </g>
        <g transform="matrix(288,0,0,288,851.096,2231.6)">
            <path d="M0.827,-0.7c0.015,0 0.023,0.007 0.023,0.022l-0,0.098c-0,0.015 -0.008,0.023 -0.023,0.023l-0.314,0l-0,0.535c-0,0.015 -0.007,0.022 -0.022,0.022l-0.109,0c-0.015,0 -0.022,-0.007 -0.022,-0.022l-0,-0.535l-0.314,0c-0.015,0 -0.023,-0.008 -0.023,-0.023l-0,-0.098c-0,-0.015 0.008,-0.022 0.023,-0.022l0.781,0Z" style="fill-rule:nonzero;"/>
        </g>
        <g transform="matrix(288,0,0,288,1096.76,2231.6)">
            <path d="M0.778,-0.7c0.015,0 0.023,0.007 0.023,0.022l0,0.095c0,0.015 -0.008,0.022 -0.023,0.022l-0.437,0c-0.026,0 -0.048,0.002 -0.065,0.007c-0.017,0.004 -0.03,0.011 -0.041,0.022c-0.01,0.01 -0.017,0.024 -0.021,0.042c-0.004,0.017 -0.006,0.039 -0.006,0.065l-0,0.01l0.565,0c0.015,0 0.022,0.007 0.022,0.022l-0,0.079c-0,0.015 -0.007,0.022 -0.022,0.022l-0.565,0l-0,0.017c-0,0.026 0.002,0.048 0.006,0.065c0.004,0.018 0.011,0.032 0.021,0.042c0.011,0.011 0.024,0.018 0.041,0.022c0.017,0.005 0.039,0.007 0.065,0.007l0.437,-0c0.015,-0 0.023,0.007 0.023,0.022l0,0.095c0,0.015 -0.008,0.022 -0.023,0.022l-0.44,-0c-0.051,-0 -0.094,-0.005 -0.129,-0.014c-0.035,-0.009 -0.064,-0.025 -0.087,-0.046c-0.022,-0.021 -0.038,-0.048 -0.049,-0.082c-0.01,-0.033 -0.015,-0.074 -0.015,-0.122l-0,-0.172c-0,-0.048 0.005,-0.089 0.015,-0.122c0.011,-0.033 0.027,-0.061 0.049,-0.082c0.023,-0.021 0.052,-0.036 0.087,-0.046c0.035,-0.009 0.078,-0.014 0.129,-0.014l0.44,0Z" style="fill-rule:nonzero;"/>
        </g>
        <g transform="matrix(288,0,0,288,1341.56,2231.6)">
            <path d="M0.633,-0.7c0.077,0 0.132,0.017 0.165,0.052c0.033,0.035 0.05,0.086 0.05,0.154l-0,0.057c-0,0.057 -0.012,0.103 -0.035,0.136c-0.023,0.033 -0.061,0.055 -0.114,0.064l0.171,0.212c0.003,0.003 0.004,0.008 0.003,0.015c-0.001,0.007 -0.007,0.01 -0.016,0.01l-0.129,-0c-0.009,-0 -0.015,-0.001 -0.018,-0.003c-0.003,-0.002 -0.007,-0.005 -0.01,-0.01l-0.158,-0.208l-0.323,0l-0,0.199c-0,0.015 -0.007,0.022 -0.022,0.022l-0.108,-0c-0.015,-0 -0.023,-0.007 -0.023,-0.022l-0,-0.648c-0,-0.02 0.01,-0.03 0.03,-0.03l0.537,0Zm-0.414,0.357l0.383,0c0.034,0 0.058,-0.007 0.072,-0.022c0.014,-0.015 0.021,-0.037 0.021,-0.067l0,-0.042c0,-0.03 -0.007,-0.052 -0.021,-0.067c-0.014,-0.015 -0.038,-0.022 -0.072,-0.022l-0.37,0c-0.009,0 -0.013,0.004 -0.013,0.012l0,0.208Z" style="fill-rule:nonzero;"/>
        </g>
        <g transform="matrix(288,0,0,288,1602.2,2231.6)">
            <path d="M0.244,-0.7c0.016,0 0.029,0.001 0.04,0.002c0.011,0.001 0.02,0.004 0.028,0.009c0.008,0.004 0.016,0.01 0.023,0.018c0.007,0.007 0.016,0.017 0.025,0.03l0.372,0.488c0.003,0.005 0.007,0.007 0.013,0.007l0.009,0c0.005,0 0.008,-0.003 0.008,-0.01l0,-0.522c0,-0.015 0.007,-0.022 0.022,-0.022l0.105,0c0.015,0 0.022,0.007 0.022,0.022l0,0.574c0,0.041 -0.007,0.068 -0.022,0.082c-0.015,0.015 -0.037,0.022 -0.068,0.022l-0.086,-0c-0.015,-0 -0.028,-0.001 -0.038,-0.002c-0.011,-0.001 -0.02,-0.004 -0.028,-0.008c-0.008,-0.004 -0.016,-0.01 -0.023,-0.018c-0.008,-0.007 -0.017,-0.018 -0.027,-0.031l-0.373,-0.488c-0.004,-0.005 -0.008,-0.007 -0.013,-0.007l-0.009,-0c-0.005,-0 -0.008,0.003 -0.008,0.01l0,0.522c0,0.015 -0.007,0.022 -0.022,0.022l-0.105,-0c-0.015,-0 -0.023,-0.007 -0.023,-0.022l0,-0.574c0,-0.041 0.007,-0.068 0.022,-0.083c0.015,-0.014 0.037,-0.021 0.068,-0.021l0.088,0Z" style="fill-rule:nonzero;"/>
        </g>
        <g transform="matrix(288,0,0,288,1883.86,2231.6)">
            <path d="M0.778,-0.7c0.015,0 0.023,0.007 0.023,0.022l0,0.095c0,0.015 -0.008,0.022 -0.023,0.022l-0.437,0c-0.026,0 -0.048,0.002 -0.065,0.007c-0.017,0.004 -0.03,0.011 -0.041,0.022c-0.01,0.01 -0.017,0.024 -0.021,0.042c-0.004,0.017 -0.006,0.039 -0.006,0.065l-0,0.01l0.565,0c0.015,0 0.022,0.007 0.022,0.022l-0,0.079c-0,0.015 -0.007,0.022 -0.022,0.022l-0.565,0l-0,0.017c-0,0.026 0.002,0.048 0.006,0.065c0.004,0.018 0.011,0.032 0.021,0.042c0.011,0.011 0.024,0.018 0.041,0.022c0.017,0.005 0.039,0.007 0.065,0.007l0.437,-0c0.015,-0 0.023,0.007 0.023,0.022l0,0.095c0,0.015 -0.008,0.022 -0.023,0.022l-0.44,-0c-0.051,-0 -0.094,-0.005 -0.129,-0.014c-0.035,-0.009 -0.064,-0.025 -0.087,-0.046c-0.022,-0.021 -0.038,-0.048 -0.049,-0.082c-0.01,-0.033 -0.015,-0.074 -0.015,-0.122l-0,-0.172c-0,-0.048 0.005,-0.089 0.015,-0.122c0.011,-0.033 0.027,-0.061 0.049,-0.082c0.023,-0.021 0.052,-0.036 0.087,-0.046c0.035,-0.009 0.078,-0.014 0.129,-0.014l0.44,0Z" style="fill-rule:nonzero;"/>
        </g>
        <g transform="matrix(288,0,0,288,2128.66,2231.6)">
            <path d="M0.827,-0.7c0.015,0 0.023,0.007 0.023,0.022l-0,0.098c-0,0.015 -0.008,0.023 -0.023,0.023l-0.314,0l-0,0.535c-0,0.015 -0.007,0.022 -0.022,0.022l-0.109,0c-0.015,0 -0.022,-0.007 -0.022,-0.022l-0,-0.535l-0.314,0c-0.015,0 -0.023,-0.008 -0.023,-0.023l-0,-0.098c-0,-0.015 0.008,-0.022 0.023,-0.022l0.781,0Z" style="fill-rule:nonzero;"/>
        </g>
    </g>
</svg>
