<?xml version="1.0" encoding="UTF-8" standalone="no"?>
<svg
   xmlns:dc="http://purl.org/dc/elements/1.1/"
   xmlns:cc="http://creativecommons.org/ns#"
   xmlns:rdf="http://www.w3.org/1999/02/22-rdf-syntax-ns#"
   xmlns:svg="http://www.w3.org/2000/svg"
   xmlns="http://www.w3.org/2000/svg"
   xmlns:sodipodi="http://sodipodi.sourceforge.net/DTD/sodipodi-0.dtd"
   xmlns:inkscape="http://www.inkscape.org/namespaces/inkscape"
   inkscape:version="1.0 (4035a4fb49, 2020-05-01)"
   sodipodi:docname="social.svg"
   viewBox="0 0 588 406"
   height="406"
   width="588"
   id="svg2"
   version="1.1">
  <metadata
     id="metadata8">
    <rdf:RDF>
      <cc:Work
         rdf:about="">
        <dc:format>image/svg+xml</dc:format>
        <dc:type
           rdf:resource="http://purl.org/dc/dcmitype/StillImage" />
        <dc:title></dc:title>
      </cc:Work>
    </rdf:RDF>
  </metadata>
  <defs
     id="defs6" />
  <sodipodi:namedview
     inkscape:current-layer="g10"
     inkscape:window-maximized="1"
     inkscape:window-y="-8"
     inkscape:window-x="-8"
     inkscape:cy="203"
     inkscape:cx="614"
     inkscape:zoom="0.5"
     showgrid="false"
     id="namedview4"
     inkscape:window-height="705"
     inkscape:window-width="1366"
     inkscape:pageshadow="2"
     inkscape:pageopacity="0"
     guidetolerance="10"
     gridtolerance="10"
     objecttolerance="10"
     borderopacity="1"
     bordercolor="#666666"
     pagecolor="#ffffff" />
  <g
     id="g10"
     inkscape:label="Image"
     inkscape:groupmode="layer">
    <g
       id="g865">
      <path
         sodipodi:nodetypes="cssssccccsccccssccccsscccccccccccc"
         id="path862"
         d="m -203.78447,463.92062 c -22.631,-5.9293 -40.43063,-23.86262 -46.24353,-46.59083 -8.6323,-33.75197 12.39738,-68.66138 46.63748,-77.41852 33.75197,-8.6323 68.66138,12.39738 77.41852,46.63748 8.6323,33.75197 -12.39738,68.66138 -46.63748,77.41852 -9.77858,2.50094 -21.51839,2.48337 -31.17499,-0.0466 z M -183,419.43927 v -17.5 h 4.88337 c 5.42827,0 6.07612,-0.87577 6.10298,-8.25 l 0.0137,-3.75 h -5.5 -5.5 v -4.3 c 0,-5.40347 1.29653,-6.7 6.7,-6.7 h 4.3 v -6 -6 l -7.75,0.0147 c -8.88966,0.0169 -11.77222,1.15255 -14.96998,5.89771 -1.82235,2.70418 -2.28002,4.75874 -2.28002,10.23543 v 6.85212 h -3.5 -3.5 v 6 6 h 3.5 3.5 v 17.5 17.5 h 7 7 z"
         style="fill:#fe8b04;fill-opacity:1" />
    </g>
    <path
       sodipodi:nodetypes="ssssssssscccsscssscssssssssscccsssssssscccccss"
       id="path14"
       d="m 310.21553,229.92062 c -22.631,-5.9293 -40.43063,-23.86262 -46.24353,-46.59083 -8.6323,-33.75197 12.39738,-68.66138 46.63748,-77.41852 33.75197,-8.632303 68.66138,12.39738 77.41852,46.63748 8.6323,33.75197 -12.39738,68.66138 -46.63748,77.41852 -9.77858,2.50094 -21.51839,2.48337 -31.17499,-0.0466 z m 45.71189,-32.61621 C 357.90757,194.78705 358,193.46949 358,167.75896 v -26.9106 l -2.45455,-2.45455 -2.45454,-2.45454 h -26.9106 c -25.71053,0 -27.02809,0.0924 -29.54545,2.07258 L 294,140.08443 v 27.61297 c 0,26.97457 0.0503,27.66648 2.17431,29.92742 2.17149,2.31144 2.2104,2.31445 29.92742,2.31445 h 27.75311 z M 302,176.93927 c 0,-11.3415 0.30487,-14.99627 1.25,-14.98469 2.52629,0.031 3.25182,1.61291 3.33205,7.26529 0.15529,10.94111 8.21465,18.23624 20.10782,18.20112 5.23243,-0.0155 6.85656,-0.48156 10.5,-3.01338 5.70966,-3.96762 9.01623,-10.38223 8.61257,-16.70806 -0.28995,-4.54402 0.40246,-5.76028 3.27935,-5.76028 0.5168,0 0.91821,6.55739 0.91821,15 v 15 h -24 -24 z m 20.39547,2.90855 c -6.4623,-1.85332 -10.58733,-9.02365 -8.94825,-15.55427 0.36703,-1.46238 2.02379,-3.92599 3.68169,-5.4747 10.86809,-10.15231 27.64009,3.04991 19.86225,15.63473 -2.82406,4.56942 -9.22415,6.93475 -14.59569,5.39424 z m 16.2712,-24.57522 C 338.3,154.90594 338,152.20594 338,149.2726 v -5.33333 h 6 6 v 6 6 h -5.33333 c -2.93334,0 -5.63334,-0.3 -6,-0.66667 z"
       style="fill:#fe8b04;fill-opacity:1" />
    <path
       style="fill:#fe8b04;fill-opacity:1"
       d="m 742.21553,400.01876 c -22.631,-5.9293 -40.43063,-23.86262 -46.24353,-46.59084 -8.6323,-33.75197 12.39738,-68.66138 46.63748,-77.41852 33.75192,-8.6323 68.66142,12.39738 77.41852,46.63748 8.6323,33.75197 -12.3974,68.66139 -46.6375,77.41853 -9.7786,2.50094 -21.51837,2.48337 -31.17497,-0.0466 z m 18.06907,-35.96178 c 13.5311,-5.1208 25.6512,-22.45759 25.7035,-36.7667 0.01,-2.31597 1.0489,-4.39499 3.6283,-7.25 3.8843,-4.29947 3.8805,-4.5225 -0.051,-3.02763 -3.0885,1.17422 -3.199,0.64596 -0.5651,-2.70238 2.8208,-3.58615 2.485,-4.57506 -0.9504,-2.79855 -3.8697,2.0011 -5.3442,1.92629 -9.2755,-0.47058 -9.2679,-5.65066 -21.7673,1.66681 -21.7726,12.74626 0,3.7655 -0.512,3.87074 -8.07004,1.66454 -6.57224,-1.91845 -12.85644,-5.44849 -18.04626,-10.13718 -3.50722,-3.16857 -3.93417,-3.32011 -4.60595,-1.63482 -1.41678,3.55425 -0.64546,10.03448 1.56364,13.13688 2.77008,3.89022 2.71496,4.39871 -0.3923,3.61883 -2.39101,-0.6001 -2.50542,-0.46152 -1.84181,2.23095 1.01778,4.12949 3.35903,7.37989 6.84838,9.50777 2.77198,1.6904 2.84254,1.85589 0.7928,1.85929 -4.88905,0.008 -0.44119,6.62606 6.40178,9.52516 l 3.84822,1.63034 -3.82742,1.98773 c -2.10508,1.09325 -6.55581,2.46832 -9.89053,3.05572 -6.86389,1.20905 -6.50029,1.7765 3.20185,4.99691 7.23977,2.40308 19.2111,1.88892 27.30064,-1.17254 z"
       id="path14-0"
       sodipodi:nodetypes="sssssssscssssscssssssscscsssss" />
  </g>
</svg>
